<?xml version="1.0" standalone="no"?>
<!DOCTYPE svg PUBLIC "-//W3C//DTD SVG 20010904//EN"
 "http://www.w3.org/TR/2001/REC-SVG-20010904/DTD/svg10.dtd">
<svg version="1.0" xmlns="http://www.w3.org/2000/svg"
 width="1200.000000pt" height="1200.000000pt" viewBox="0 0 1200.000000 1200.000000"
 preserveAspectRatio="xMidYMid meet">
<metadata>
Created by potrace 1.16, written by Peter Selinger 2001-2019
</metadata>
<g transform="translate(0.000000,1200.000000) scale(0.100000,-0.100000)"
fill="#000000" stroke="none">
<path d="M5790 10860 c0 -5 -13 -10 -30 -10 -16 0 -30 -4 -30 -10 0 -5 -9 -10
-20 -10 -11 0 -20 -4 -20 -10 0 -5 -22 -10 -50 -10 -43 0 -50 -3 -50 -20 0
-16 -7 -20 -30 -20 -19 0 -30 -5 -30 -14 0 -8 -5 -18 -12 -22 -7 -4 -8 -3 -4
4 4 7 1 12 -8 12 -9 0 -16 -4 -16 -10 0 -5 -12 -10 -26 -10 -16 0 -37 -12 -54
-30 -15 -16 -33 -30 -40 -30 -7 0 -25 -13 -40 -30 -15 -16 -38 -30 -49 -30
-27 0 -75 -46 -65 -62 4 -7 3 -8 -5 -4 -7 5 -20 -1 -30 -13 -10 -12 -26 -21
-35 -21 -9 0 -16 -8 -16 -20 0 -11 -4 -20 -10 -20 -5 0 -10 -7 -10 -16 0 -8
-22 -37 -50 -64 -27 -27 -50 -54 -50 -60 0 -19 -27 -40 -52 -40 -13 0 -30 -9
-38 -20 -8 -11 -22 -20 -32 -20 -10 0 -18 -7 -18 -16 0 -9 -13 -29 -30 -44
-16 -15 -30 -33 -30 -39 0 -15 -66 -81 -80 -81 -16 0 -140 -128 -140 -145 0
-8 -4 -15 -10 -15 -5 0 -10 -7 -10 -16 0 -18 -23 -44 -40 -44 -17 0 -40 -26
-40 -44 0 -9 7 -16 15 -16 8 0 15 -4 15 -10 0 -5 -7 -10 -15 -10 -8 0 -15 5
-15 10 0 6 -4 10 -10 10 -5 0 -10 -13 -10 -30 0 -16 -4 -30 -10 -30 -5 0 -10
-9 -10 -20 0 -11 -4 -20 -10 -20 -5 0 -10 -9 -10 -20 0 -13 -7 -20 -18 -20
-10 0 -24 -9 -32 -20 -8 -12 -26 -20 -42 -20 -15 0 -28 -4 -28 -10 0 -5 -7
-10 -16 -10 -8 0 -22 -6 -30 -14 -27 -27 -14 -28 32 -2 26 14 54 26 63 26 24
0 101 74 101 98 0 25 27 49 41 35 7 -7 2 -20 -14 -39 -24 -30 -57 -94 -57
-113 0 -5 -11 -26 -24 -46 -13 -19 -27 -53 -31 -74 -3 -22 -13 -47 -20 -58 -8
-10 -15 -28 -15 -40 0 -12 -4 -25 -10 -28 -5 -3 -10 -19 -10 -34 0 -15 -3 -31
-7 -35 -4 -3 -8 -32 -10 -63 -2 -31 -9 -63 -16 -71 -14 -18 -12 -450 3 -517 6
-28 5 -62 -6 -114 -9 -41 -13 -84 -10 -97 3 -12 2 -25 -3 -28 -8 -5 -5 -236 4
-244 2 -2 22 -6 44 -9 23 -3 44 -9 46 -13 9 -15 -7 -41 -21 -36 -8 3 -14 1
-14 -4 0 -6 7 -10 16 -10 9 0 14 -6 11 -12 -2 -9 -27 -13 -77 -13 -71 0 -74 1
-80 25 -5 20 -7 22 -12 8 -7 -17 22 -64 49 -81 10 -6 11 -13 2 -30 -7 -12 -11
-41 -10 -64 0 -25 -3 -43 -10 -43 -6 0 -10 12 -9 28 3 42 1 52 -11 52 -16 0
-5 -211 16 -300 12 -53 17 -105 15 -180 -2 -58 -2 -156 -1 -219 1 -101 5 -120
29 -170 22 -46 27 -72 30 -152 3 -82 1 -101 -17 -135 -12 -21 -21 -48 -21 -59
0 -37 34 -116 67 -155 45 -53 66 -139 79 -330 4 -63 9 -109 11 -102 3 6 8 12
12 12 12 0 38 -72 40 -110 1 -19 12 -55 26 -80 71 -129 90 -175 88 -220 -5
-129 -14 -229 -24 -260 -9 -31 -15 -35 -47 -37 -33 -2 -78 -18 -242 -82 -121
-48 -466 -217 -530 -259 -66 -45 -176 -107 -288 -162 -46 -23 -100 -53 -120
-67 -21 -14 -75 -45 -122 -69 -47 -24 -92 -49 -100 -54 -8 -5 -42 -23 -75 -39
-33 -16 -82 -40 -110 -55 -61 -32 -273 -122 -335 -143 -25 -8 -73 -30 -107
-49 -34 -19 -70 -34 -81 -34 -17 0 -36 31 -56 90 -2 8 -5 -2 -5 -22 -1 -21 4
-38 9 -38 6 0 10 -9 10 -20 0 -11 5 -20 10 -20 6 0 10 -9 10 -20 0 -11 5 -20
10 -20 6 0 10 -13 10 -30 0 -16 5 -30 10 -30 6 0 10 -8 10 -18 0 -10 9 -24 20
-32 12 -8 20 -26 20 -42 0 -15 5 -28 10 -28 6 0 10 -8 10 -18 0 -10 9 -24 20
-32 11 -8 20 -22 20 -32 0 -10 5 -18 10 -18 6 0 10 -9 10 -20 0 -11 5 -20 10
-20 6 0 10 -9 10 -20 0 -11 5 -20 10 -20 6 0 10 -7 10 -16 0 -9 14 -29 30 -44
17 -15 30 -38 30 -50 0 -12 14 -35 30 -50 17 -15 30 -34 30 -42 0 -7 9 -20 20
-28 11 -8 20 -21 20 -30 0 -9 9 -22 20 -30 11 -8 20 -21 20 -30 0 -9 9 -22 20
-30 11 -8 20 -21 20 -28 0 -7 18 -31 40 -52 22 -21 40 -44 40 -50 0 -6 22 -33
50 -60 27 -27 50 -54 50 -60 0 -6 40 -51 90 -100 50 -49 90 -94 90 -100 0 -15
25 -40 40 -40 6 0 51 -41 100 -90 49 -50 94 -90 100 -90 6 0 33 -22 60 -50 27
-27 54 -50 60 -50 6 0 29 -18 50 -40 21 -22 45 -40 52 -40 7 0 20 -9 28 -20 8
-11 21 -20 30 -20 9 0 22 -9 30 -20 8 -11 21 -20 30 -20 9 0 22 -9 30 -20 8
-11 21 -20 28 -20 8 0 27 -13 42 -30 15 -16 38 -30 50 -30 12 0 35 -13 50 -30
15 -16 35 -30 44 -30 9 0 16 -4 16 -10 0 -5 9 -10 20 -10 11 0 20 -4 20 -10 0
-5 9 -10 20 -10 11 0 20 -4 20 -10 0 -5 8 -10 18 -10 10 0 24 -9 32 -20 8 -11
22 -20 32 -20 10 0 18 -4 18 -10 0 -5 14 -10 30 -10 17 0 30 -4 30 -10 0 -5 9
-10 20 -10 11 0 20 -4 20 -10 0 -5 9 -10 20 -10 11 0 20 -4 20 -10 0 -5 9 -10
20 -10 11 0 20 -4 20 -10 0 -5 9 -10 20 -10 11 0 20 -4 20 -10 0 -5 9 -10 20
-10 11 0 20 -4 20 -10 0 -5 14 -10 30 -10 17 0 30 -4 30 -10 0 -5 9 -10 20
-10 11 0 20 -4 20 -10 0 -5 14 -10 30 -10 17 0 30 -4 30 -10 0 -5 18 -10 40
-10 22 0 40 -4 40 -10 0 -5 9 -10 20 -10 11 0 20 -4 20 -10 0 -5 9 -10 20 -10
11 0 20 -4 20 -10 0 -5 23 -10 50 -10 28 0 50 -4 50 -10 0 -5 14 -10 30 -10
17 0 30 -4 30 -10 0 -5 14 -10 30 -10 17 0 30 -4 30 -10 0 -5 23 -10 50 -10
28 0 50 -4 50 -10 0 -5 18 -10 40 -10 22 0 40 -4 40 -10 0 -5 18 -10 40 -10
22 0 40 -4 40 -10 0 -6 37 -10 90 -10 53 0 90 -4 90 -10 0 -5 23 -10 50 -10
28 0 50 -4 50 -10 0 -6 30 -10 70 -10 40 0 70 -4 70 -10 0 -6 117 -10 330 -10
213 0 330 4 330 10 0 6 30 10 70 10 40 0 70 4 70 10 0 6 23 10 50 10 28 0 50
5 50 10 0 6 37 10 90 10 53 0 90 4 90 10 0 6 18 10 40 10 22 0 40 5 40 10 0 6
18 10 40 10 22 0 40 5 40 10 0 6 27 10 60 10 33 0 60 4 60 10 0 6 14 10 30 10
17 0 30 5 30 10 0 6 9 10 20 10 11 0 20 5 20 10 0 6 23 10 50 10 28 0 50 5 50
10 0 6 9 10 20 10 11 0 20 5 20 10 0 6 14 10 30 10 17 0 30 5 30 10 0 6 14 10
30 10 17 0 30 5 30 10 0 6 14 10 30 10 17 0 30 5 30 10 0 6 9 10 20 10 11 0
20 5 20 10 0 6 14 10 30 10 17 0 30 5 30 10 0 6 9 10 20 10 11 0 20 5 20 10 0
6 9 10 20 10 11 0 20 5 20 10 0 6 9 10 20 10 11 0 20 5 20 10 0 6 9 10 20 10
11 0 20 5 20 10 0 6 9 10 20 10 11 0 20 5 20 10 0 6 14 10 30 10 17 0 30 5 30
10 0 6 8 10 18 10 10 0 24 9 32 20 8 11 22 20 32 20 10 0 18 5 18 10 0 6 9 10
20 10 11 0 20 5 20 10 0 6 9 10 20 10 11 0 20 5 20 10 0 6 7 10 16 10 9 0 29
14 44 30 15 17 38 30 50 30 12 0 35 14 50 30 15 17 34 30 42 30 7 0 20 9 28
20 8 11 21 20 30 20 9 0 22 9 30 20 8 11 21 20 30 20 9 0 22 9 30 20 8 11 21
20 28 20 7 0 31 18 52 40 21 22 44 40 50 40 6 0 33 23 60 50 27 28 54 50 59
50 14 0 421 407 421 421 0 5 23 32 50 59 28 27 50 54 50 60 0 6 18 29 40 50
22 21 40 45 40 52 0 7 9 20 20 28 11 8 20 21 20 30 0 9 9 22 20 30 11 8 20 21
20 30 0 9 9 22 20 30 11 8 20 21 20 30 0 9 9 22 20 30 11 8 20 21 20 30 0 9 9
22 20 30 11 8 20 21 20 30 0 9 9 22 20 30 11 8 20 22 20 32 0 10 5 18 10 18 6
0 10 9 10 20 0 11 5 20 10 20 6 0 10 9 10 20 0 11 5 20 10 20 6 0 10 9 10 20
0 11 5 20 10 20 6 0 10 8 10 18 0 10 9 24 20 32 12 8 20 26 20 42 0 15 5 28
10 28 6 0 10 9 10 20 0 11 5 20 10 20 6 0 10 9 10 20 0 11 5 20 10 20 6 0 10
9 10 20 0 11 5 20 10 20 6 0 10 9 10 20 0 11 5 20 10 20 6 0 10 9 10 20 0 11
5 20 10 20 6 0 10 18 10 40 0 22 5 40 10 40 6 0 10 9 10 20 0 11 5 20 10 20 6
0 10 9 10 20 0 11 5 20 10 20 6 0 10 14 10 30 0 17 5 30 10 30 6 0 10 14 10
30 0 17 5 30 10 30 6 0 10 14 10 30 0 17 5 30 10 30 6 0 10 18 10 40 0 22 5
40 10 40 6 0 10 14 10 30 0 17 5 30 10 30 6 0 10 14 10 30 0 17 5 30 10 30 6
0 10 23 10 50 0 28 5 50 10 50 6 0 10 18 10 40 0 22 5 40 10 40 6 0 10 18 10
40 0 22 5 40 10 40 6 0 10 33 10 80 0 47 4 80 10 80 6 0 10 30 10 70 0 40 4
70 10 70 6 0 10 37 10 90 0 53 4 90 10 90 6 0 10 100 10 280 0 180 -4 280 -10
280 -6 0 -10 37 -10 90 0 53 -4 90 -10 90 -6 0 -10 27 -10 60 0 33 -4 60 -10
60 -6 0 -10 33 -10 80 0 47 -4 80 -10 80 -5 0 -10 23 -10 50 0 28 -4 50 -10
50 -5 0 -10 14 -10 30 0 17 -5 30 -10 30 -10 0 -7 -22 10 -85 5 -16 13 -64 19
-105 6 -41 13 -91 16 -110 36 -215 46 -352 47 -595 0 -121 -5 -272 -12 -335
-6 -63 -14 -142 -17 -175 -2 -33 -9 -64 -14 -69 -5 -6 -9 -33 -9 -60 -1 -28
-8 -80 -16 -116 -17 -70 -29 -126 -43 -193 -12 -58 -39 -158 -50 -182 -4 -11
-21 -60 -36 -110 -31 -101 -84 -235 -92 -235 -7 0 -168 77 -313 150 -85 43
-154 67 -385 140 -38 12 -83 28 -100 36 -16 7 -88 34 -160 58 -130 44 -220 79
-415 161 -58 24 -134 55 -170 68 -36 14 -88 36 -115 50 -28 13 -66 28 -85 32
-19 4 -83 27 -142 51 -86 35 -116 43 -145 39 -33 -5 -42 -2 -73 27 -19 18 -38
34 -42 34 -4 1 -12 2 -16 3 -18 2 -32 55 -32 119 -1 37 -7 85 -15 107 -20 55
-19 68 11 96 23 21 46 64 100 187 8 18 14 41 14 52 0 10 6 25 14 33 8 7 26 56
41 108 15 52 38 119 51 150 13 31 24 63 24 70 0 8 9 43 20 79 11 36 25 94 30
130 22 150 38 237 49 264 6 16 14 52 17 80 8 76 51 200 91 259 42 63 47 68 39
40 -4 -13 -5 -23 -2 -23 8 0 34 102 46 185 14 93 32 164 55 218 25 60 13 81
-14 25 -24 -51 -46 -74 -55 -60 -3 5 2 21 10 36 18 36 18 36 -6 36 -24 0 -24
-3 -5 49 8 22 10 41 5 41 -17 0 -11 24 19 86 41 83 74 185 117 359 35 145 36
153 25 230 -8 57 -9 98 -1 140 13 79 13 291 -1 354 -7 35 -7 66 0 107 6 32 7
62 2 68 -4 6 -8 18 -8 26 0 8 -3 25 -7 38 -5 13 -3 22 3 22 16 0 13 21 -6 44
-17 19 -17 20 -1 7 16 -12 17 -11 6 20 -6 19 -15 39 -20 46 -6 7 -11 36 -13
65 -1 29 -6 61 -10 71 -11 26 12 21 31 -8 9 -14 64 -57 123 -96 251 -169 524
-408 716 -629 113 -130 277 -347 344 -453 31 -49 57 -83 60 -76 2 7 -1 15 -7
17 -7 2 -12 11 -12 21 0 9 -9 23 -20 31 -11 8 -20 22 -20 32 0 10 -4 18 -10
18 -5 0 -10 7 -10 16 0 9 -13 29 -30 44 -16 15 -30 33 -30 40 0 7 -13 25 -30
40 -16 15 -30 33 -30 40 0 7 -14 25 -30 40 -16 15 -30 33 -30 40 0 6 -22 33
-50 60 -27 27 -50 54 -50 59 0 14 -407 421 -421 421 -5 0 -32 23 -59 50 -27
28 -54 50 -60 50 -6 0 -29 18 -50 40 -21 22 -45 40 -52 40 -7 0 -20 9 -28 20
-8 11 -21 20 -30 20 -9 0 -22 9 -30 20 -8 11 -21 20 -30 20 -9 0 -22 9 -30 20
-8 11 -20 20 -28 20 -23 0 -82 68 -82 95 0 14 -4 25 -10 25 -5 0 -10 9 -10 20
0 12 -7 20 -16 20 -26 0 -44 26 -44 64 0 20 -4 36 -10 36 -5 0 -10 16 -10 36
0 38 -18 64 -44 64 -10 0 -16 9 -16 25 0 29 -40 75 -65 75 -11 0 -15 12 -15
50 0 28 -4 50 -10 50 -5 0 -10 17 -10 38 0 26 -6 42 -20 52 -11 8 -20 21 -20
30 0 9 -9 22 -20 30 -11 8 -20 21 -20 28 0 8 -13 27 -30 42 -16 15 -30 36 -30
45 0 11 -5 15 -16 11 -8 -3 -12 -2 -9 4 8 13 -19 40 -39 40 -9 0 -16 5 -16 10
0 6 -22 10 -50 10 -38 0 -50 4 -50 15 0 18 -64 85 -80 85 -7 0 -29 18 -50 40
-21 22 -44 40 -50 40 -6 0 -38 27 -70 60 -32 33 -66 60 -74 60 -9 0 -16 5 -16
10 0 15 -77 12 -83 -2 -3 -9 -11 -6 -24 10 -12 12 -32 22 -47 22 -14 0 -26 5
-26 10 0 6 -7 10 -16 10 -9 0 -29 14 -44 30 -16 17 -38 30 -52 30 -13 0 -30 9
-38 20 -11 15 -26 20 -60 20 -34 0 -49 5 -60 20 -8 12 -26 20 -42 20 -15 0
-28 5 -28 10 0 6 -27 10 -60 10 -33 0 -60 4 -60 10 0 6 -8 10 -18 10 -10 0
-24 9 -32 20 -13 17 -26 20 -102 20 -52 0 -88 -4 -88 -10 0 -5 -13 -10 -29
-10 -16 0 -32 -6 -35 -12 -5 -10 -7 -10 -12 0 -3 6 -14 12 -25 12 -12 0 -19 7
-19 20 0 13 -7 20 -20 20 -11 0 -20 5 -20 10 0 6 -9 10 -20 10 -11 0 -20 5
-20 10 0 6 -22 10 -50 10 -27 0 -50 5 -50 10 0 6 -43 10 -110 10 -67 0 -110
-4 -110 -10z m-1 -958 c16 -5 13 48 -4 78 -25 44 -16 47 11 3 26 -45 41 -53
50 -28 4 11 11 12 24 5 9 -5 20 -6 24 -3 13 13 36 11 36 -2 0 -20 21 -30 31
-14 7 11 9 10 9 -4 0 -22 30 -79 47 -90 7 -4 18 -13 25 -21 12 -11 14 -2 15
53 0 36 6 77 12 91 9 20 10 12 5 -42 -4 -51 -2 -75 11 -102 19 -40 39 -38 33
3 -2 15 1 32 8 39 9 8 13 3 18 -20 3 -17 6 -43 6 -59 0 -42 17 -44 24 -1 4 28
2 40 -10 49 -15 11 -15 18 1 85 18 80 35 131 42 125 2 -3 -2 -26 -8 -53 -7
-27 -13 -95 -13 -151 -2 -97 -1 -101 16 -86 10 9 29 36 43 59 14 24 30 44 36
44 6 0 7 -6 3 -12 -5 -7 9 2 29 20 21 17 44 32 52 32 8 0 18 7 23 16 7 13 10
13 21 1 9 -12 8 -18 -5 -31 -23 -24 -9 -33 16 -11 15 14 20 15 20 4 0 -8 -16
-25 -35 -39 -38 -27 -81 -87 -71 -98 4 -3 22 10 39 29 31 36 124 95 133 86 3
-2 -25 -28 -61 -56 -78 -62 -86 -85 -12 -39 82 52 126 73 134 64 4 -4 -3 -16
-17 -26 -27 -21 -21 -26 11 -10 10 6 19 18 19 27 0 18 28 42 48 43 9 0 4 -12
-12 -31 -14 -17 -26 -36 -26 -43 0 -24 14 -27 30 -6 9 12 23 22 32 24 9 1 32
14 52 30 27 20 44 26 62 22 13 -4 24 -3 24 1 0 11 52 33 90 38 17 2 38 12 46
22 12 16 13 15 14 -15 l0 -33 29 15 c26 14 30 14 35 1 3 -8 10 -15 16 -15 6 0
9 4 6 9 -3 4 1 17 10 27 14 18 15 18 4 -4 -9 -18 -8 -23 7 -29 10 -3 29 -14
43 -24 14 -9 39 -19 55 -22 45 -7 105 -34 105 -48 0 -6 7 -9 15 -6 8 4 17 2
20 -3 4 -6 17 -10 31 -10 13 0 24 -4 24 -9 0 -13 38 -2 43 13 3 6 3 -1 1 -15
-3 -25 0 -27 31 -24 24 1 35 -2 35 -12 0 -7 4 -13 9 -13 5 0 16 -6 23 -13 7
-7 24 -19 38 -28 14 -9 61 -70 105 -135 43 -65 101 -147 127 -182 26 -35 48
-67 48 -72 0 -4 7 -22 15 -39 8 -17 22 -45 30 -62 8 -17 15 -41 15 -55 0 -13
9 -56 20 -96 10 -40 20 -98 21 -128 2 -78 -13 -240 -22 -240 -4 0 -7 -8 -7
-17 2 -53 -16 -229 -24 -234 -13 -9 2 -456 17 -476 9 -12 29 -15 95 -15 l82 2
-6 -42 c-8 -47 -46 -106 -46 -71 0 31 -69 41 -91 14 -16 -19 -17 -19 -28 5 -6
14 -11 33 -11 42 0 29 -46 116 -76 144 -36 33 -116 75 -214 113 -41 16 -79 33
-85 38 -14 12 40 -2 105 -29 30 -12 56 -21 58 -19 9 9 -58 97 -117 154 -88 86
-115 101 -178 101 -28 0 -63 4 -78 10 -20 8 -27 7 -32 -5 -5 -14 -9 -14 -32 2
-19 12 -51 18 -121 20 -52 2 -111 5 -130 8 -19 3 -105 9 -190 15 -85 5 -173
12 -195 15 -31 3 -44 0 -63 -18 -29 -27 -116 -157 -109 -163 3 -3 126 -7 274
-9 148 -2 297 -7 331 -11 117 -13 62 -22 -105 -17 -97 3 -206 1 -258 -6 -59
-7 -93 -7 -99 -1 -6 6 -47 10 -93 10 -82 0 -83 0 -81 -25 2 -26 12 -32 23 -15
3 6 11 10 17 10 7 0 2 -10 -11 -21 -14 -13 -21 -29 -18 -40 3 -12 -9 -43 -29
-76 -19 -31 -34 -61 -34 -67 0 -5 35 26 78 70 59 62 87 83 120 93 51 14 68 7
26 -11 -61 -26 -117 -72 -149 -122 -18 -28 -42 -60 -54 -70 -15 -14 -21 -31
-21 -63 0 -23 -2 -43 -4 -43 -2 0 -23 18 -47 40 -47 43 -59 48 -59 26 0 -7 17
-26 37 -42 65 -49 70 -59 77 -125 17 -163 40 -289 62 -343 13 -32 21 -63 17
-69 -3 -6 -1 -7 5 -3 7 4 12 1 12 -8 0 -15 31 -75 54 -106 10 -13 56 -24 56
-13 0 3 -24 48 -54 101 -53 98 -84 170 -54 127 8 -11 40 -63 71 -116 66 -114
127 -172 229 -222 95 -46 156 -63 303 -83 249 -34 437 5 577 119 50 42 64 62
122 180 42 84 75 168 92 232 14 55 27 101 29 103 2 2 3 -74 4 -170 0 -197 -11
-367 -35 -495 -8 -48 -19 -110 -24 -138 -23 -145 -53 -287 -70 -340 -11 -33
-24 -90 -30 -126 -5 -37 -28 -121 -49 -188 -22 -66 -42 -134 -46 -151 -9 -41
-28 -38 -23 4 3 25 0 32 -10 29 -7 -3 -11 -8 -8 -11 3 -2 -1 -14 -9 -24 -7
-11 -11 -26 -8 -34 3 -7 -2 -21 -11 -30 -18 -17 -16 -41 3 -37 6 2 11 -2 11
-7 0 -13 -13 -13 -27 1 -12 12 -43 -24 -43 -51 -1 -8 -9 1 -20 20 -11 19 -19
29 -20 22 0 -7 4 -21 9 -31 6 -10 6 -23 0 -32 -6 -10 -9 -10 -9 -1 0 6 -9 12
-20 12 -11 0 -20 -7 -20 -15 0 -17 -3 -21 -50 -74 -16 -18 -30 -38 -30 -43 0
-6 -7 -8 -15 -4 -8 3 -16 0 -16 -7 -1 -7 -2 -19 -3 -27 0 -8 -7 -14 -13 -13
-8 2 -13 -7 -13 -21 0 -35 -10 -56 -26 -56 -8 0 -14 -7 -14 -15 0 -8 -11 -22
-26 -31 -17 -12 -22 -20 -15 -27 16 -16 13 -30 -4 -23 -13 5 -17 0 -14 -20 0
-4 -4 -10 -10 -13 -6 -4 -12 -18 -13 -31 -3 -22 -30 -60 -44 -60 -12 0 -35
-30 -29 -39 3 -6 -7 -23 -23 -39 -16 -16 -32 -37 -35 -46 -8 -21 -24 -20 -30
2 -3 12 -7 9 -17 -15 -11 -31 -30 -45 -30 -23 0 17 -29 -1 -36 -23 -6 -20 -7
-20 -20 -3 -13 19 -36 14 -33 -7 4 -31 -2 -37 -26 -31 -19 5 -25 2 -25 -10 0
-19 -48 -76 -65 -76 -7 0 -17 -11 -23 -24 -8 -17 -17 -23 -36 -21 -26 3 -32
-7 -26 -45 1 -12 -1 -13 -11 -2 -17 16 -29 15 -29 -1 0 -7 -7 -22 -16 -33 -15
-18 -15 -17 -9 16 16 81 16 117 1 123 -17 7 -29 -32 -20 -68 5 -19 2 -25 -11
-25 -10 0 -15 5 -12 13 3 8 -8 25 -24 38 -17 14 -29 33 -29 47 0 18 -4 23 -15
18 -11 -4 -19 3 -26 22 -10 26 -11 26 -24 8 -16 -21 -35 -13 -35 15 0 23 -8
24 -32 2 -16 -14 -23 -15 -39 -5 -15 10 -19 10 -19 0 -1 -7 -7 -2 -14 11 l-14
25 -16 -32 c-9 -18 -21 -32 -27 -32 -6 0 -7 -14 -3 -35 6 -36 -10 -95 -27 -95
-12 0 -11 23 1 55 8 21 7 26 -2 22 -7 -2 -12 -10 -11 -16 2 -6 -1 -11 -6 -11
-5 0 -14 -13 -21 -30 -7 -16 -16 -27 -21 -24 -5 3 -7 9 -4 14 6 9 -20 21 -29
13 -3 -4 -6 -15 -6 -25 0 -24 -12 -23 -29 4 l-13 22 -13 -25 c-7 -13 -11 -28
-8 -34 3 -5 0 -4 -8 3 -17 16 -29 15 -29 -3 0 -20 -36 -39 -46 -24 -4 8 -12 2
-21 -15 -11 -22 -33 -36 -33 -22 0 15 14 35 21 30 5 -3 6 2 3 10 -3 9 -16 14
-27 13 -17 -1 -22 3 -21 19 0 13 -5 20 -12 17 -6 -2 -14 5 -17 16 -3 14 -10
19 -21 15 -11 -4 -16 -1 -16 11 0 9 -9 19 -19 22 -11 3 -22 11 -25 19 -8 22
-24 17 -39 -12 -8 -15 -17 -23 -20 -17 -3 5 1 22 9 37 25 50 16 64 -16 26 -27
-31 -30 -32 -30 -12 0 29 -32 29 -54 -1 l-16 -22 2 25 c3 52 -3 67 -28 79 -22
10 -25 9 -21 -2 3 -8 1 -20 -4 -28 -7 -12 -9 -12 -9 1 0 26 -54 18 -58 -8 -4
-29 -16 -28 -30 3 l-12 26 -22 -21 c-26 -24 -37 -25 -44 -5 -4 8 -17 15 -30
15 -15 0 -24 6 -24 15 0 23 -20 18 -21 -5 -2 -36 -4 -40 -14 -41 -10 -1 -20
13 -29 44 -9 29 -26 19 -26 -15 0 -17 8 -40 18 -51 13 -15 13 -19 2 -15 -14 4
-43 68 -54 118 -3 14 -19 40 -35 57 -16 18 -32 41 -36 52 -3 10 -15 21 -26 24
-12 3 -18 10 -14 16 3 6 2 11 -3 11 -4 0 -18 18 -31 40 -12 22 -32 46 -44 55
-12 8 -16 15 -9 15 6 0 12 5 12 10 0 6 -7 10 -15 10 -9 0 -21 11 -27 25 -6 14
-15 25 -20 25 -4 0 -7 5 -5 11 1 6 -9 18 -23 27 -23 16 -24 16 -16 -3 6 -16 5
-17 -5 -8 -10 10 -16 10 -28 1 -9 -7 -12 -8 -8 -3 4 5 -3 14 -15 21 -19 10
-23 21 -24 61 -3 79 -3 83 -19 83 -14 0 -14 4 1 31 8 17 11 28 6 25 -5 -3 -13
5 -16 19 -4 16 -13 25 -25 25 -10 0 -22 7 -25 16 -4 9 -9 14 -13 11 -3 -4 0
-13 7 -22 7 -8 14 -32 16 -53 3 -33 2 -34 -7 -13 -5 14 -15 32 -22 40 -10 12
-9 13 2 6 10 -6 12 -4 7 4 -6 9 -13 8 -27 -5 -18 -16 -19 -16 -13 -1 3 10 1
17 -5 17 -8 0 -7 7 3 23 9 14 11 29 6 42 -6 13 -9 15 -10 5 0 -12 -5 -11 -18
5 -9 11 -26 27 -37 35 -17 14 -18 13 -12 -2 3 -9 -1 -22 -9 -28 -10 -9 -14 -9
-14 -1 0 6 -4 11 -10 11 -5 0 -7 -6 -4 -14 3 -8 1 -17 -4 -20 -10 -6 -61 117
-82 199 -7 28 -19 62 -26 76 -26 53 -87 421 -101 609 -3 36 -9 69 -14 74 -5 6
-8 24 -8 40 1 21 3 25 6 11 3 -11 10 -24 15 -30 18 -17 1 181 -19 223 -16 32
-18 66 -17 272 2 251 11 413 24 405 4 -3 11 -31 14 -62 11 -92 54 -231 98
-316 42 -80 92 -133 159 -168 90 -46 310 -89 454 -89 238 1 390 56 521 192 70
72 175 217 204 280 10 24 19 35 19 26 1 -24 -63 -141 -109 -199 -21 -27 -42
-58 -45 -69 -4 -11 -10 -20 -14 -20 -3 0 -15 -13 -24 -30 -12 -20 -14 -28 -5
-25 12 5 32 30 143 175 19 25 41 53 50 63 8 9 15 24 15 32 0 8 5 14 11 13 6
-2 13 6 14 17 2 11 10 45 19 75 9 30 16 67 16 82 0 35 29 98 55 120 11 10 43
29 70 44 40 21 44 25 20 21 -52 -9 -122 -45 -142 -73 -12 -16 -13 -15 -13 9 0
15 4 27 9 27 22 0 17 32 -10 61 l-29 31 0 -35 c0 -49 -26 -167 -55 -256 -77
-230 -272 -450 -444 -501 -166 -48 -360 -50 -555 -5 -189 44 -250 89 -322 239
-97 199 -131 574 -65 703 34 67 125 122 221 134 36 4 103 15 150 23 132 25
463 32 574 12 49 -8 94 -20 100 -26 7 -7 6 -10 -4 -10 -7 0 5 -18 28 -40 39
-37 55 -59 32 -45 -5 3 -10 1 -10 -5 0 -6 10 -15 23 -20 l22 -9 -23 0 c-12 -1
-25 6 -28 14 -4 8 -9 13 -13 10 -4 -2 -36 7 -70 21 -157 64 -310 65 -434 3
-70 -35 -143 -106 -172 -168 -11 -22 -27 -41 -35 -41 -9 0 -24 -10 -34 -21
-15 -18 -16 -29 -9 -68 6 -37 14 -49 37 -60 26 -12 34 -11 76 6 35 15 52 18
66 10 10 -6 33 -12 51 -14 26 -3 31 0 27 12 -4 8 -2 15 2 15 5 0 15 4 23 9 12
7 10 14 -8 36 -23 30 -28 51 -9 39 7 -5 9 -2 5 8 -3 10 3 24 15 35 12 10 18
12 14 6 -4 -7 -3 -13 3 -13 5 0 12 9 16 19 3 11 11 24 18 29 10 8 12 -3 12
-48 0 -90 53 -149 143 -158 94 -9 162 55 162 151 0 20 5 37 10 37 6 0 10 -3
10 -8 0 -4 13 -13 29 -20 37 -16 55 -60 49 -116 l-5 -44 44 -7 c24 -3 69 -13
100 -21 31 -8 58 -13 60 -10 3 2 -9 23 -26 47 -43 58 -41 82 3 40 31 -31 68
-44 118 -43 11 1 15 -5 11 -14 -3 -8 -2 -14 1 -14 4 0 16 20 26 43 37 84 26
215 -23 277 -21 27 -101 75 -173 104 -109 44 -114 47 -69 40 64 -9 182 -64
229 -106 28 -24 52 -58 67 -93 13 -31 27 -51 31 -47 16 16 -13 100 -50 144
l-36 43 36 -33 36 -34 0 37 c0 20 5 42 11 48 23 23 -9 37 -90 37 -43 0 -106 6
-141 14 -35 8 -139 22 -233 31 -93 9 -178 21 -187 26 -10 5 -73 9 -140 9 -67
0 -119 2 -116 5 11 11 189 15 273 6 50 -6 171 -19 270 -30 99 -11 216 -23 260
-26 l81 -7 2 30 c1 16 -4 35 -13 42 -12 10 -15 9 -16 -6 -1 -11 -1 -25 0 -33
2 -7 -2 -10 -8 -6 -6 3 -10 23 -10 43 1 22 -7 53 -21 77 -43 75 -99 120 -64
53 l17 -33 -30 32 c-33 35 -89 62 -131 62 -36 1 -127 7 -232 17 -47 5 -120 8
-162 8 -42 0 -75 3 -72 8 6 10 -43 3 -80 -12 -17 -6 -26 -6 -26 0 0 6 5 10 10
10 6 0 10 5 10 11 0 7 -7 8 -17 4 -10 -4 -44 -9 -76 -11 -73 -5 -120 -29 -200
-104 -52 -48 -117 -142 -117 -167 0 -3 14 -3 30 1 19 3 29 2 25 -4 -3 -6 -12
-10 -18 -10 -7 0 -30 -9 -52 -20 -22 -11 -46 -20 -53 -20 -8 0 -36 -12 -63
-27 -27 -14 -51 -24 -53 -22 -7 7 23 213 41 279 13 49 17 112 18 260 1 107 6
219 10 249 12 87 53 214 119 370 93 218 411 531 525 516 17 -2 33 1 36 5 3 5
19 7 34 4 16 -4 32 -1 35 5 4 6 18 11 30 11 13 0 29 6 35 14 7 8 21 12 32 9
12 -4 25 1 34 13 8 11 14 14 15 7 0 -7 9 -13 20 -13 12 0 25 -10 32 -25 15
-33 24 -31 32 7 5 24 9 29 18 20 20 -20 28 -14 28 20 0 25 3 29 12 20 7 -7 22
-12 34 -12 13 0 29 -7 38 -15 20 -20 29 -19 21 4 -5 16 -1 19 20 17 14 -2 28
1 31 5 9 15 22 10 29 -11 10 -31 28 -24 21 8 -21 82 -16 84 22 12 22 -41 45
-76 51 -78z m-425 -1750 c49 -23 87 -45 84 -48 -3 -2 -17 0 -32 5 -17 7 -26 7
-26 1 0 -6 5 -10 10 -10 6 0 10 -6 10 -14 0 -8 9 -18 20 -21 11 -3 20 -10 20
-14 0 -5 -42 8 -92 27 -83 32 -103 36 -193 36 -96 1 -103 0 -177 -37 -66 -32
-86 -48 -133 -107 -31 -39 -58 -70 -60 -70 -15 0 60 151 92 186 32 34 105 80
161 101 24 8 71 12 132 11 89 -3 101 -6 184 -46z m1728 6 c-2 -10 2 -18 8 -18
6 0 8 5 5 10 -8 13 17 13 52 -2 15 -6 30 -12 33 -13 45 -10 67 -19 78 -28 8
-6 36 -19 64 -29 59 -20 62 -24 125 -147 26 -52 57 -104 68 -117 11 -12 26
-29 33 -38 15 -19 34 -12 26 9 -4 8 1 18 10 21 20 8 21 50 2 95 -8 20 -10 42
-6 54 4 11 4 25 -1 30 -4 6 -9 24 -12 40 -4 31 -10 34 -227 94 -67 19 -70 20
-25 15 69 -8 239 -51 289 -74 22 -10 56 -21 74 -25 45 -9 88 -48 117 -106 21
-40 25 -63 25 -136 0 -153 -26 -254 -128 -493 -30 -70 -48 -97 -107 -155 -79
-79 -128 -103 -266 -131 -187 -38 -511 16 -644 107 -156 106 -269 329 -322
635 -24 136 -16 166 63 250 l66 69 -53 -63 -53 -63 -4 -93 c-3 -62 0 -100 8
-112 10 -18 11 -17 7 3 -5 21 -3 23 33 17 23 -4 40 -2 44 5 4 6 18 11 32 11
14 0 39 7 55 16 43 22 47 11 10 -28 -17 -18 -31 -36 -31 -40 0 -4 26 -9 58
-13 31 -3 72 -8 90 -11 31 -5 32 -4 27 25 -7 42 20 105 53 122 15 8 33 20 40
27 23 21 27 14 24 -50 -5 -115 55 -175 165 -166 44 4 60 11 88 38 35 34 61
112 49 145 -4 8 -1 15 6 15 6 0 14 -9 17 -19 3 -11 14 -21 25 -23 28 -4 62
-83 44 -101 -11 -10 -9 -15 11 -28 l24 -16 -26 -17 c-15 -10 -43 -24 -63 -31
-26 -9 -31 -14 -16 -14 21 -1 69 12 109 29 48 21 62 20 99 -5 20 -14 51 -25
68 -25 l31 0 -20 23 c-11 12 -40 54 -63 92 -53 86 -138 175 -194 203 -55 28
-176 46 -255 38 -35 -4 -91 -18 -124 -31 -78 -32 -87 -31 -52 5 16 17 34 30
41 30 7 0 22 11 33 26 24 30 60 42 146 46 36 1 65 6 65 9 0 4 -38 10 -85 14
-47 4 -85 10 -85 14 0 12 17 33 26 32 5 -1 9 4 9 11 0 7 11 15 25 19 l25 7
-25 2 c-14 1 -29 3 -35 5 -5 1 -23 3 -38 3 -17 1 -26 6 -22 12 4 7 54 10 133
8 115 -3 127 -5 124 -20z m260 -2717 c-2 -17 3 -40 13 -55 21 -31 13 -65 -10
-46 -12 10 -15 9 -15 -5 0 -33 -103 -240 -167 -337 -16 -22 -32 -48 -38 -57
-16 -26 -157 -204 -187 -236 -15 -16 -28 -34 -28 -38 0 -5 -10 -5 -21 -2 -15
5 -19 4 -15 -4 4 -7 -1 -11 -13 -11 -12 0 -21 -5 -21 -11 0 -6 -12 -9 -27 -7
-25 3 -28 0 -25 -23 1 -17 -3 -29 -14 -33 -14 -5 -15 -4 -4 9 11 14 7 19 -12
16 -5 0 -8 4 -8 9 0 6 -13 -3 -30 -20 -35 -36 -38 -50 -10 -50 18 0 25 10 21
33 0 4 4 7 10 7 6 0 8 -7 5 -16 -3 -9 -6 -19 -6 -24 0 -12 -49 -18 -53 -6 -3
6 -15 1 -31 -14 -15 -13 -24 -30 -21 -38 3 -7 -2 -20 -10 -28 -12 -13 -15 -12
-24 4 -18 34 -7 57 37 79 2 0 4 8 6 16 3 24 26 46 42 40 8 -3 17 3 21 13 11
29 41 55 47 41 5 -9 7 -9 12 1 3 6 10 10 15 6 5 -3 9 5 10 18 0 13 3 17 6 10
4 -10 8 -9 19 5 8 11 13 13 14 6 0 -21 20 -15 20 6 0 14 -6 19 -24 17 -30 -4
-58 13 -37 21 7 3 22 14 32 24 10 10 24 16 31 14 15 -5 98 66 98 83 0 7 4 12
9 12 5 0 33 25 62 56 30 31 64 60 76 65 28 11 63 65 63 99 1 27 21 60 37 60 5
0 22 36 37 81 15 44 41 101 57 126 16 26 32 61 35 80 8 40 22 44 16 4z m-2577
-115 c38 -35 51 -73 15 -41 -17 15 -20 16 -20 3 0 -9 7 -21 16 -28 8 -8 22
-30 31 -49 13 -31 16 -33 22 -17 6 16 11 12 30 -25 13 -24 32 -54 42 -68 30
-38 13 -38 -26 -1 -61 59 -38 15 28 -53 196 -202 247 -264 182 -221 -12 8 -31
12 -41 8 -13 -4 -15 -3 -6 3 9 7 4 15 -19 32 -16 12 -35 33 -41 47 -14 31 -24
31 -32 -1 -8 -30 -22 -32 -31 -4 -4 11 -9 18 -13 15 -3 -3 -12 3 -20 15 -8 11
-20 18 -29 15 -8 -3 -12 -2 -9 3 3 4 -5 17 -17 29 -36 34 -47 50 -47 70 0 11
-7 36 -15 57 -10 22 -13 41 -7 48 5 7 5 23 1 37 -7 24 -7 24 -8 -5 -3 -54 -21
-2 -23 64 -1 34 -5 61 -10 61 -4 0 -8 9 -8 20 0 29 16 25 55 -14z m-471 -46
c30 -11 34 -28 9 -37 -10 -3 -28 -15 -41 -27 -13 -12 -27 -20 -30 -20 -8 2
-14 0 -69 -16 -23 -7 -55 -22 -69 -34 -55 -42 -170 -144 -191 -170 -23 -26
-43 -34 -43 -16 0 20 87 115 135 147 28 18 55 37 61 42 6 5 35 26 65 47 30 21
56 41 59 44 8 9 74 50 82 50 4 0 18 -4 32 -10z m3456 -58 c31 -16 82 -37 114
-46 32 -10 118 -46 190 -81 123 -59 249 -110 306 -122 14 -3 27 -9 30 -13 4
-6 76 -27 153 -45 9 -2 22 -7 27 -10 13 -8 44 -14 113 -22 38 -4 57 -10 57
-19 0 -17 -52 -17 -173 0 -48 7 -90 9 -93 5 -2 -5 -14 -5 -26 0 -12 4 -41 4
-64 -1 -32 -7 -51 -6 -76 5 -18 8 -49 21 -68 28 -19 7 -41 19 -48 26 -7 7 -20
13 -28 13 -7 0 -23 8 -33 17 -11 9 -30 18 -43 20 -12 2 -32 12 -43 23 -12 11
-28 20 -37 20 -9 0 -21 7 -28 15 -7 8 -19 15 -28 15 -8 0 -23 6 -31 14 -9 7
-38 21 -64 31 -26 10 -59 31 -72 47 -13 15 -27 28 -31 28 -10 0 -64 61 -64 72
0 5 -4 7 -8 4 -4 -2 -14 0 -22 5 -35 22 39 -1 90 -29z m-910 -1668 c64 -38 83
-130 35 -171 -37 -32 -62 -29 -106 16 -32 32 -39 46 -39 78 0 47 31 93 62 93
11 0 32 -7 48 -16z m-1378 -111 c47 -54 47 -115 0 -158 -32 -30 -82 -33 -104
-7 -32 37 -42 81 -28 121 7 20 17 42 22 49 16 19 92 15 110 -5z"/>
<path d="M4815 8262 c-47 -3 -125 -22 -126 -31 -4 -34 -10 -54 -28 -100 l-20
-54 20 -28 c11 -16 17 -34 14 -39 -4 -6 -1 -17 5 -25 9 -11 16 -12 30 -2 14 8
16 15 8 24 -8 10 -7 13 3 13 15 0 59 75 59 100 0 8 9 28 19 44 11 17 17 34 14
39 -3 4 4 11 16 14 12 3 21 10 21 15 0 5 3 7 8 4 4 -2 16 2 27 10 10 8 17 15
14 15 -10 3 -47 4 -84 1z"/>
<path d="M4589 8217 c-39 -34 -84 -157 -74 -200 9 -33 -8 -41 -44 -22 -38 19
-37 20 -36 -12 0 -20 7 -29 32 -37 17 -6 34 -13 37 -16 3 -3 -1 -46 -9 -95 -8
-50 -15 -99 -14 -110 1 -25 51 162 85 320 14 66 33 135 41 153 20 41 14 47
-18 19z"/>
<path d="M4888 7703 c-31 -37 -31 -44 1 -41 16 1 38 -5 48 -13 24 -21 126 -50
186 -53 89 -4 369 33 445 61 23 8 49 13 56 10 13 -5 26 12 26 31 0 4 -17 7
-38 7 -20 0 -48 2 -62 6 -14 3 -38 2 -55 -2 -16 -4 -61 -10 -100 -14 -38 -3
-86 -11 -105 -17 -19 -6 -89 -12 -155 -12 -113 -1 -143 2 -155 14 -11 11 -60
40 -68 40 -5 0 -16 -8 -24 -17z"/>
<path d="M5603 7026 c-23 -13 -44 -22 -46 -20 -2 3 -10 -2 -17 -11 -7 -8 -16
-15 -21 -15 -14 0 -59 -42 -59 -56 0 -6 -9 -18 -20 -25 -16 -12 -17 -16 -5
-27 12 -10 21 -6 53 23 22 19 42 35 46 35 3 0 3 -25 0 -57 -8 -66 9 -68 20 -3
5 32 18 53 56 91 75 75 71 110 -7 65z"/>
<path d="M6460 7035 c-1 -5 -2 -14 -1 -19 1 -5 -5 -6 -14 -3 -11 5 -15 -1 -15
-23 0 -17 5 -30 10 -30 6 0 10 -6 10 -14 0 -8 5 -16 11 -18 11 -4 24 -35 60
-145 19 -57 19 -64 5 -92 -23 -43 -48 -54 -94 -42 -53 14 -124 11 -144 -6 -9
-8 -22 -12 -27 -8 -6 3 -11 1 -11 -4 0 -6 -7 -11 -15 -11 -8 0 -15 -5 -15 -10
0 -7 -25 -9 -72 -4 -40 3 -79 6 -85 7 -7 0 -13 3 -13 6 0 3 -16 6 -35 6 -33 1
-41 -8 -36 -37 0 -5 -6 -8 -14 -8 -8 0 -15 -4 -15 -10 0 -21 -16 -8 -33 28
-29 61 -97 89 -246 101 -77 7 -86 10 -107 36 -13 16 -25 41 -27 55 -2 14 -5
-2 -6 -34 -1 -63 14 -120 39 -147 14 -15 87 -39 133 -44 12 -1 24 -3 26 -4 7
-2 -54 -51 -64 -51 -5 0 -36 -26 -69 -57 -54 -54 -69 -57 -23 -6 39 44 10 41
-63 -6 -77 -49 -128 -99 -156 -152 -30 -59 -26 -20 5 47 41 87 41 100 1 79
-19 -10 -30 -11 -30 -5 0 6 -10 10 -22 9 -13 -2 -32 2 -43 8 -39 20 -73 24
-79 8 -8 -23 -28 -18 -21 5 5 15 2 20 -14 20 -11 0 -23 -4 -26 -10 -3 -5 -10
-10 -15 -10 -12 0 1 44 17 53 7 4 13 14 13 21 0 7 10 24 23 38 38 43 57 68 52
68 -3 0 1 15 9 34 12 30 12 35 0 40 -8 3 -14 1 -14 -4 0 -6 -7 -10 -15 -10 -9
0 -18 -7 -21 -15 -4 -8 -10 -12 -15 -9 -5 3 -12 -2 -15 -10 -3 -9 -11 -16 -17
-16 -15 0 -148 -140 -142 -150 2 -4 -4 -15 -14 -24 -23 -21 -39 -112 -22 -129
6 -6 11 -35 11 -65 0 -48 2 -53 19 -47 14 4 23 -2 34 -24 8 -17 13 -39 10 -49
-2 -10 3 -24 11 -31 9 -8 16 -19 16 -25 0 -12 32 -48 69 -78 11 -10 21 -15 21
-12 0 4 7 1 16 -6 13 -11 16 -10 21 8 3 12 8 22 12 22 3 0 7 11 7 25 3 46 14
75 29 75 8 0 15 -4 15 -8 0 -5 20 -23 45 -41 25 -18 51 -47 59 -64 26 -63 205
-206 259 -207 9 0 17 -4 17 -9 0 -4 19 -11 43 -15 109 -16 117 -19 117 -33 0
-12 -6 -13 -27 -7 -16 4 -48 6 -72 5 -31 -1 -47 3 -58 16 -8 10 -12 13 -9 6 7
-13 -115 12 -124 26 -3 4 -22 14 -43 20 -20 7 -43 19 -50 26 -19 18 -42 2 -32
-21 11 -25 12 -30 14 -54 0 -11 8 -20 16 -20 24 0 55 -37 48 -56 -5 -14 -2
-16 23 -10 27 6 27 5 11 -8 -18 -14 -18 -15 2 -35 12 -12 21 -28 21 -36 0 -17
12 -19 26 -5 16 16 74 -17 74 -41 0 -11 5 -17 10 -14 6 4 10 -5 10 -19 0 -28
18 -34 39 -13 11 10 13 7 8 -19 -6 -32 -7 -32 75 -35 10 0 20 -5 24 -10 3 -6
19 -2 40 10 19 11 34 16 34 11 0 -6 6 -10 14 -10 8 0 16 -6 19 -12 6 -17 38 1
53 31 18 34 23 35 33 7 13 -33 27 -33 35 0 9 34 17 25 21 -23 6 -67 26 -136
37 -125 6 6 6 23 -1 48 -6 22 -11 48 -11 59 1 17 3 16 16 -7 15 -28 46 -39 43
-15 -3 24 1 33 29 63 25 28 31 30 47 18 27 -20 38 -17 32 7 -5 17 -3 18 9 8 9
-7 22 -25 30 -41 15 -29 51 -41 40 -13 -20 49 -20 50 6 28 34 -32 41 -29 34
15 l-6 37 19 -22 c27 -33 44 -29 39 7 -3 17 -1 30 4 30 4 0 8 -5 8 -11 0 -8 5
-8 15 1 8 7 15 19 15 26 0 8 5 14 10 14 6 0 10 7 10 15 0 8 7 15 15 15 19 0
19 5 0 34 -14 21 -14 25 5 49 l21 26 -23 -5 c-13 -2 -36 -7 -53 -9 -16 -3 -38
-8 -49 -11 -53 -17 -123 -4 -79 14 13 5 5 8 -27 12 -25 3 -51 2 -57 -3 -9 -7
-13 -4 -13 7 0 9 3 16 8 17 4 0 14 2 22 4 91 24 94 24 107 7 9 -13 12 -13 13
-3 0 11 3 11 15 1 15 -12 35 -6 35 11 0 5 -6 9 -12 8 -29 -3 -49 2 -43 11 4 6
11 8 16 5 5 -4 9 3 9 15 0 12 -4 19 -8 16 -4 -2 -29 -7 -56 -10 -27 -3 -65
-10 -86 -16 -41 -11 -214 -1 -237 13 -6 4 -36 5 -66 2 -31 -2 -59 0 -62 6 -4
5 -19 9 -35 9 -16 0 -35 6 -43 14 -7 8 -25 16 -38 18 -13 2 -23 9 -22 15 2 8
-12 10 -41 8 -36 -3 -48 1 -74 25 -17 15 -32 26 -34 24 -2 -2 -5 13 -5 33 -1
20 2 32 5 26 4 -5 26 -17 49 -26 31 -12 43 -13 47 -4 3 8 8 6 16 -6 14 -22 33
-12 25 13 -5 15 -2 17 15 13 11 -3 20 -9 20 -13 0 -5 9 -6 20 -3 11 3 20 1 20
-5 0 -6 9 -9 20 -7 11 2 39 -3 63 -12 51 -19 264 -28 304 -12 39 15 284 18
289 4 7 -17 64 -18 64 -1 0 11 8 13 35 9 22 -4 41 -1 51 8 33 27 131 78 152
79 15 0 16 -52 1 -67 -9 -9 -6 -11 12 -9 38 4 82 31 128 79 45 46 94 66 116
47 14 -12 19 -6 54 59 17 30 24 59 22 88 -3 68 -5 83 -12 83 -4 0 -10 12 -13
26 -7 25 -180 204 -198 204 -12 0 -70 41 -85 60 -6 9 -15 11 -20 6 -4 -5 -2
-11 5 -13 6 -3 12 -11 12 -19 0 -7 9 -19 20 -26 11 -7 20 -20 20 -28 0 -8 9
-30 20 -48 26 -43 33 -100 14 -119 -12 -12 -17 -13 -30 -3 -21 18 -29 5 -16
-26 11 -24 11 -25 -10 -19 -13 4 -33 13 -45 21 -12 8 -24 10 -28 5 -7 -12 5
-42 15 -36 4 3 10 -2 13 -10 9 -21 -23 -7 -56 27 -16 15 -33 28 -38 28 -17 0
-9 -21 19 -45 15 -13 24 -26 20 -30 -6 -7 -40 24 -76 69 -16 20 -32 21 -32 2
0 -7 -9 -16 -20 -19 -22 -6 -69 41 -96 96 -32 67 -39 77 -51 73 -7 -3 -15 -1
-18 3 -2 5 5 11 16 14 12 3 18 10 14 16 -3 6 2 11 13 11 12 0 28 18 47 53 32
59 65 109 80 119 6 5 6 8 1 8 -6 0 -5 5 2 12 8 8 15 8 26 -2 18 -14 51 -6 41
10 -4 6 -1 9 6 8 7 -2 14 3 15 10 3 26 5 27 14 12 5 -8 10 -10 10 -5 0 6 -4
16 -9 23 -6 11 -11 10 -25 -3 -15 -15 -16 -15 -16 4 0 12 5 21 10 21 6 0 10 5
10 11 0 5 -5 7 -11 3 -6 -3 -10 1 -9 12 3 25 -10 64 -20 64 -5 0 -12 10 -16
23 -3 12 -13 29 -20 37 -8 8 -27 30 -43 48 -16 17 -34 32 -39 32 -6 0 -13 6
-15 13 -3 6 -6 8 -7 2z m-681 -794 c-10 -27 -9 -39 4 -66 15 -32 19 -34 54
-28 21 3 50 14 66 24 22 16 27 17 27 4 0 -16 2 -17 74 -20 l49 -3 -7 62 c-4
41 -3 56 4 46 5 -8 10 -23 10 -32 0 -9 5 -28 11 -41 9 -20 19 -25 48 -25 70 1
131 -8 143 -20 7 -7 18 -12 25 -12 8 0 20 -14 27 -30 7 -17 15 -28 18 -25 3 4
9 1 13 -5 9 -14 -71 -8 -120 9 -16 5 -106 12 -200 14 -93 3 -179 8 -189 12
-13 6 -17 5 -12 -3 3 -6 2 -13 -4 -17 -5 -3 -10 -1 -10 4 0 6 -6 10 -12 9 -8
-2 -13 6 -12 19 1 14 -3 20 -12 16 -7 -2 -10 -11 -7 -19 7 -18 -5 -18 -24 1
-12 13 -18 13 -30 3 -13 -10 -19 -7 -39 17 -13 17 -24 36 -24 42 0 14 31 12
52 -3 25 -19 43 -10 48 26 6 32 30 83 37 76 2 -1 -2 -17 -8 -35z"/>
<path d="M4639 6384 c-3 -18 -2 -41 2 -53 12 -31 -6 -34 -21 -3 -13 29 -27 15
-15 -16 3 -9 6 -19 6 -22 1 -3 5 -10 10 -16 8 -10 9 -144 1 -144 -13 0 -59 56
-55 66 6 16 -10 25 -26 14 -10 -6 -11 -17 -4 -46 7 -31 14 -39 31 -38 12 0 22
-2 22 -5 7 -78 12 -105 24 -128 21 -37 52 -73 64 -73 5 0 13 -7 16 -16 8 -21
29 -6 23 17 -3 10 -1 22 4 25 5 3 9 -2 9 -11 0 -8 6 -18 14 -21 11 -4 13 -12
6 -30 -7 -19 -6 -24 5 -24 8 0 15 5 15 11 0 6 19 -7 42 -30 24 -22 46 -41 50
-41 3 0 2 16 -3 36 -7 24 -7 39 0 48 9 10 6 13 -11 12 -17 -1 -24 5 -26 22 -2
12 1 22 7 22 6 0 8 7 5 15 -4 8 -10 13 -14 10 -5 -3 -7 20 -5 51 4 49 2 57
-15 61 -13 3 -20 15 -22 37 -2 19 -8 31 -18 31 -11 0 -15 11 -16 38 -1 21 -8
43 -16 50 -15 11 -39 100 -39 141 0 13 -5 17 -19 13 -12 -3 -20 1 -23 12 -2 9
-5 2 -8 -15z"/>
<path d="M7440 6350 c0 -5 -7 -10 -15 -10 -8 0 -15 -9 -15 -19 0 -11 -7 -26
-15 -35 -8 -8 -15 -21 -15 -29 0 -25 -63 -136 -80 -142 -18 -6 -40 -45 -40
-70 0 -8 -5 -15 -10 -15 -6 0 -20 -20 -32 -45 -12 -25 -26 -45 -30 -45 -4 0
-8 -7 -8 -16 0 -13 -3 -14 -13 -5 -18 14 -36 -22 -30 -59 2 -16 -3 -30 -16
-40 -26 -20 -28 -49 -5 -87 24 -41 54 -51 54 -18 0 32 18 41 35 19 14 -18 14
-18 10 3 -2 12 2 24 11 27 8 3 14 13 14 23 0 27 26 95 52 139 l23 39 3 -27 c5
-40 20 -34 27 10 10 60 36 133 45 127 4 -3 6 4 3 15 -3 11 -1 20 5 20 9 0 20
36 24 80 1 8 7 20 14 25 7 6 15 21 18 35 2 14 7 33 11 43 4 9 3 17 -3 17 -5 0
-7 11 -4 25 2 15 0 25 -7 25 -6 0 -11 -4 -11 -10z"/>
<path d="M7655 8006 c9 -13 18 -34 21 -47 7 -32 24 -253 32 -424 7 -133 8
-138 19 -95 8 29 10 78 6 136 -5 83 -4 95 16 122 14 21 17 32 9 34 -8 3 -6 7
5 11 13 5 17 1 17 -18 0 -14 5 -25 11 -25 7 0 9 11 5 33 -4 17 -11 55 -15 82
-5 28 -13 59 -17 70 -7 18 -6 18 9 6 24 -19 21 0 -6 40 -22 33 -101 99 -118
99 -5 0 -2 -11 6 -24z"/>
<path d="M6540 7635 c0 -34 262 -172 378 -200 91 -22 170 -23 248 -4 85 20
132 61 62 54 -104 -11 -217 -4 -243 15 -5 4 -24 10 -42 13 -24 5 -148 58 -172
74 -2 1 -1 9 2 17 5 13 14 13 64 -5 32 -11 67 -18 78 -17 12 2 -6 13 -47 26
-37 13 -73 22 -80 21 -7 -1 -26 3 -41 9 -16 7 -34 12 -42 12 -17 0 -27 -27
-12 -33 31 -12 -73 3 -110 16 -35 12 -43 12 -43 2z"/>
<path d="M5382 3424 c-17 -12 -22 -25 -22 -63 0 -75 41 -102 94 -60 53 41 22
137 -44 139 -3 0 -16 -7 -28 -16z"/>
</g>
</svg>
